<svg xmlns="http://www.w3.org/2000/svg" xmlns:xlink="http://www.w3.org/1999/xlink" width="271" height="81" viewBox="0 0 2871 821"><defs><clipPath id="clip-Artboard_8"><rect width="2871" height="821"/></clipPath></defs><g id="Artboard_8" data-name="Artboard – 8" clip-path="url(#clip-Artboard_8)"><g id="Layer_2" data-name="Layer 2" transform="translate(135.847 119.116)"><g id="Layer_3" data-name="Layer 3" transform="translate(0)"><path id="Path_2" data-name="Path 2" d="M290.923,326.572,196.35,38.65h46.476l71.191,221.668H301.623L371.13,38.65h32.9l69.507,221.668H461.148L532.3,38.65h46.476L484.159,326.572h-32.9L381.323,105.327h12.342L323.8,326.572Z" transform="translate(490.347 96.481)" fill="#fff"/><path id="Path_3" data-name="Path 3" d="M408.7,268.861a106.119,106.119,0,0,1-53.25-13.354A99.612,99.612,0,0,1,317.8,218.688a107.75,107.75,0,0,1-.207-104.89,100.934,100.934,0,0,1,88.427-50.38,92.654,92.654,0,0,1,48.841,12.59,90.7,90.7,0,0,1,33.369,34.97,103.975,103.975,0,0,1,12.135,50.607,82.817,82.817,0,0,1-.63,10.07c-.424,3.5-1.033,7.229-1.848,11.361H335.85V145.938h138.6L457.7,160.728a76.069,76.069,0,0,0-6.992-30.457,44.5,44.5,0,0,0-17.485-18.911,54.646,54.646,0,0,0-27.968-6.569,58.425,58.425,0,0,0-30.033,7.416A50.448,50.448,0,0,0,355.5,132.976a67.456,67.456,0,0,0-6.992,31.851,68.37,68.37,0,0,0,7.374,32.481,52.089,52.089,0,0,0,20.977,21.606,62.934,62.934,0,0,0,31.262,7.591,73.136,73.136,0,0,0,28.185-5.319,58.6,58.6,0,0,0,21.967-15.636l28.774,29.2a92.405,92.405,0,0,1-34.961,25.489,111.383,111.383,0,0,1-43.377,8.634Z" transform="translate(759.213 158.251)" fill="#fff"/><path id="Path_4" data-name="Path 4" d="M370.55,332.443V36.3H415.8V183.494l-7.828,47.725,7.828,48.108v53.106Zm105.7,4.131a82.83,82.83,0,0,1-40.279-9.646A71.879,71.879,0,0,1,408.206,300.4a73.121,73.121,0,0,1-10.07-38.214v-56.8a72.025,72.025,0,0,1,10.327-38.213,73.713,73.713,0,0,1,27.969-26.532,81.846,81.846,0,0,1,39.9-9.646,87.86,87.86,0,0,1,48.314,13.778,98.633,98.633,0,0,1,34.082,37.025,114.887,114.887,0,0,1,0,104.436,96.981,96.981,0,0,1-34.082,36.819,88.821,88.821,0,0,1-48.314,13.561Zm-7.416-42.758a54.737,54.737,0,0,0,28.98-7.622A53.248,53.248,0,0,0,517.568,265a71.353,71.353,0,0,0,0-62.484,53.249,53.249,0,0,0-19.623-21.255,54.739,54.739,0,0,0-28.981-7.622,55.945,55.945,0,0,0-29.2,7.622,51.848,51.848,0,0,0-19.758,21.193,73.422,73.422,0,0,0,0,62.484,51.845,51.845,0,0,0,19.758,21.193,55.942,55.942,0,0,0,29.022,7.622Z" transform="translate(925.206 90.62)" fill="#fff"/><path id="Path_5" data-name="Path 5" d="M538.745,268.965A104.184,104.184,0,0,1,485.917,255.4a99.612,99.612,0,0,1-37.232-37.026,107.694,107.694,0,0,1,0-104.643,100.064,100.064,0,0,1,37.233-36.819A109.33,109.33,0,0,1,581.75,72.2,94.4,94.4,0,0,1,615.667,97.48l-29.61,30.034a54.817,54.817,0,0,0-20.769-15.42,67.269,67.269,0,0,0-26.532-5.164,57.725,57.725,0,0,0-29.786,7.622,53.573,53.573,0,0,0-20.17,20.77,69.2,69.2,0,0,0,0,61.5,52.934,52.934,0,0,0,20.17,20.976,57.723,57.723,0,0,0,29.786,7.591,67.265,67.265,0,0,0,26.532-5.164,54.828,54.828,0,0,0,20.769-15.419l29.61,30.034a93.63,93.63,0,0,1-33.917,25.283,104.891,104.891,0,0,1-43.006,8.841Z" transform="translate(1086.4 158.147)" fill="#fff"/><path id="Path_6" data-name="Path 6" d="M496.05,332.443V36.3h45.278V332.443Zm135.3,0V218.464A44.409,44.409,0,0,0,618.8,185.983a43.317,43.317,0,0,0-32.274-12.765,47.135,47.135,0,0,0-23.465,5.773,40.871,40.871,0,0,0-16.008,16.05,46.987,46.987,0,0,0-5.733,23.424L523.626,208.6a79.969,79.969,0,0,1,9.895-40.1,72.1,72.1,0,0,1,27.337-27.555,77.134,77.134,0,0,1,39.246-10.07,78.216,78.216,0,0,1,39.474,9.863,71.04,71.04,0,0,1,27.1,27.379,80.858,80.858,0,0,1,9.894,40.527v123.8Z" transform="translate(1238.498 90.62)" fill="#fff"/><path id="Path_7" data-name="Path 7" d="M586.5,92.907a25.518,25.518,0,0,1-19.054-7.8,28.318,28.318,0,0,1,0-38.668,27.616,27.616,0,0,1,38.461,0,29.022,29.022,0,0,1,0,38.668A25.489,25.489,0,0,1,586.5,92.907ZM563.941,326.566V129.179h45.277V326.618Z" transform="translate(1397.676 96.445)" fill="#fff"/><path id="Path_8" data-name="Path 8" d="M588.38,265.027V67.588h45.246V265.027Zm45.246-109.786L618,147.413a101.749,101.749,0,0,1,16.68-60.666,57.839,57.839,0,0,1,50.276-23.29A60.276,60.276,0,0,1,733.91,86.075L704.259,116.5a30.9,30.9,0,0,0-11.919-8.262,47.136,47.136,0,0,0-46.475,9.471A50.363,50.363,0,0,0,633.6,155.117Z" transform="translate(1468.989 158.036)" fill="#fff"/><path id="Path_9" data-name="Path 9" d="M636.26,347.08V67.379h45.206v53.106l-7.654,48.108,7.8,47.694V347.08Zm105.7-78.141a82.729,82.729,0,0,1-40.177-9.646,71.877,71.877,0,0,1-27.76-26.533,73.114,73.114,0,0,1-10.07-38.213V137.754A72.03,72.03,0,0,1,674.277,99.54a73.449,73.449,0,0,1,27.969-26.532,81.853,81.853,0,0,1,39.9-9.646,87.931,87.931,0,0,1,48.325,13.778,98.924,98.924,0,0,1,34.082,37.026,114.889,114.889,0,0,1,0,104.436,97.266,97.266,0,0,1-34.082,36.819,88.943,88.943,0,0,1-48.46,13.571Zm-7.416-42.758a54.824,54.824,0,0,0,28.981-7.622,53.716,53.716,0,0,0,19.758-21.193,71.374,71.374,0,0,0,0-62.484,53.719,53.719,0,0,0-19.758-21.193,54.825,54.825,0,0,0-28.981-7.622,55.938,55.938,0,0,0-29.259,7.622,51.642,51.642,0,0,0-19.757,21.193,73.422,73.422,0,0,0,0,62.484,51.636,51.636,0,0,0,19.756,21.193A55.938,55.938,0,0,0,734.54,226.182Z" transform="translate(1588.514 158.172)" fill="#fff"/><path id="Path_10" data-name="Path 10" d="M781.038,263.9,696.71,64.566h49.967l57.547,146.388H789.682L850.556,64.566h50.172L809.016,263.9ZM722.168,344.1l61.256-126.249,25.52,46.042-36.6,80.207Z" transform="translate(1739.425 161.151)" fill="#fff"/><path id="Path_11" data-name="Path 11" d="M175.522,160.7a31.469,31.469,0,1,1,31.469-31.469A31.469,31.469,0,0,1,175.522,160.7Z" transform="translate(359.809 244.043)" fill="#ee2d27" fill-rule="evenodd"/><path id="Path_12" data-name="Path 12" d="M410.668,360.125c1.291-1.219,2.623-2.479,3.883-3.78,6.434-6.362,12.652-12.941,18.745-19.716,2.3-2.551,4.544-5.03,6.786-7.415a.94.94,0,0,0,.63-.558q9.76-11.216,17.9-22.308c1.993-2.592,3.883-5.1,5.66-7.622l23.217-37.346h0c18.7-36.045,22.794-66.811,7.9-82.623a41.766,41.766,0,0,0-34.268-10.493,143.805,143.805,0,0,0-47.653,13.147A381.285,381.285,0,0,0,309.63,253.241c-1.849,1.714-3.5,3.5-5.381,5.164-.764.7-1.57,1.508-2.272,2.272-10.493,10.834-21.606,23.042-33.814,37.181l-.6.661a703.954,703.954,0,0,0-55.709,72.1c-6.4,9.646-13.984,24.787-23.981,37.8A57.516,57.516,0,0,1,80.567,379.5a28.919,28.919,0,0,1,.248-4.617,120.517,120.517,0,0,1,5.66-43.842c2.169-6.362,4.575-12.724,7.23-18.952,29.073-68.433,76.737-126.187,145.717-176.36,49.688-36.086,94.924-55.771,142.3-61.885a192.689,192.689,0,0,1,25-1.642,146.006,146.006,0,0,1,106.006,43.181A230.1,230.1,0,0,0,484.761,69.2,161.477,161.477,0,0,0,376.132,1.642,168.347,168.347,0,0,0,353.049,0a180.74,180.74,0,0,0-45.908,6.114,374.087,374.087,0,0,0-135.978,70.23A544.214,544.214,0,0,0,59.849,192.967a298.911,298.911,0,0,0-58,134.428A142.422,142.422,0,0,0,33.936,442.635,138.549,138.549,0,0,0,140.51,489.761h3.284c13.251,0,31.645-10.039,35.631,6.362,6.259,25.345,15.244,55.378,47.973,64.508a133.608,133.608,0,0,0,35.941,4.751,226.006,226.006,0,0,0,60.036-9.471A388.093,388.093,0,0,0,488.82,461.225a33.349,33.349,0,0,0,4.689-48.324,26.678,26.678,0,0,0-20.274-9.863,30.137,30.137,0,0,0-17.206,5.835,204.618,204.618,0,0,0-17.867,14.893c-3.956,3.5-7.973,7.312-12.27,10.772-41.952,33.948-93.561,66.15-156.778,72.409h-.248a24.127,24.127,0,0,1-4.544.455,23.114,23.114,0,0,1-11.185-43.377l.351-.31,1.033-.485,1.467-.6,7.87-3.5a477.285,477.285,0,0,0,145.975-98.25,5.842,5.842,0,0,0,.837-.754Zm-55.936-25.5c-53.179,49.967-102.587,81.425-106.12,77.3s30.664-53.912,83.914-103.982,104.684-81.5,108.175-77.2-33.049,53.84-86.083,103.951Z" transform="translate(0.014)" fill="#ee2d27" fill-rule="evenodd"/></g></g></g></svg>
